<svg data-v-423bf9ae="" xmlns="http://www.w3.org/2000/svg" viewBox="0 0 594.9407491122563 163" class="iconAbove"><!----><!----><!----><g data-v-423bf9ae="" id="8eac9b85-f8d8-4b53-971a-8855c74d804e" fill="white" transform="matrix(5.173397818367446,0,0,5.173397818367446,7.656632712625651,91.87719276662486)"><path d="M12.29 12.29L12.29 12.29L12.29 12.29Q12.46 12.29 12.46 12.53L12.46 12.53L12.46 12.53Q12.46 12.78 12.37 12.93L12.37 12.93L12.37 12.93Q12.28 13.09 12.17 13.22L12.17 13.22L12.17 13.22Q12.05 13.35 11.87 13.47L11.87 13.47L11.87 13.47Q11.46 13.74 11.00 13.74L11.00 13.74L11.00 13.74Q10.53 13.74 10.26 13.63L10.26 13.63L10.26 13.63Q9.99 13.51 9.80 13.29L9.80 13.29L9.80 13.29Q9.37 12.82 9.37 11.98L9.37 11.98L9.37 11.98Q9.37 11.09 9.71 9.81L9.71 9.81L9.71 9.81Q10.06 8.53 10.37 7.62L10.37 7.62L10.37 7.62Q10.69 6.71 11.03 5.88L11.03 5.88L11.64 4.31L11.64 4.31Q10.63 5.22 9.08 8.13L9.08 8.13L7.42 11.27L7.42 11.27Q6.10 13.74 5.53 13.74L5.53 13.74L5.53 13.74Q4.98 13.74 4.77 13.26L4.77 13.26L4.77 13.26Q4.59 12.80 4.59 11.71L4.59 11.71L4.59 11.71Q4.59 10.61 4.76 9.60L4.76 9.60L4.76 9.60Q4.94 8.59 5.20 7.63L5.20 7.63L5.20 7.63Q5.67 5.93 6.41 4.25L6.41 4.25L6.41 4.25Q5.69 4.66 4.81 6.05L4.81 6.05L4.81 6.05Q4.14 7.16 3.87 7.68L3.87 7.68L2.11 10.92L2.11 10.92Q1.00 12.93 0.33 13.40L0.33 13.40L0.33 13.40Q-0.15 13.74-0.71 13.74L-0.71 13.74L-0.71 13.74Q-1.19 13.74-1.40 13.44L-1.40 13.44L-1.40 13.44Q-1.48 13.32-1.48 13.21L-1.48 13.21L-1.48 13.21Q-1.48 13.11-1.42 13.09L-1.42 13.09L-1.42 13.09Q-1.00 12.97-0.82 12.85L-0.82 12.85L-0.82 12.85Q-0.65 12.72-0.48 12.59L-0.48 12.59L-0.48 12.59Q-0.31 12.46 0.02 12.02L0.02 12.02L0.02 12.02Q0.35 11.59 0.73 10.98L0.73 10.98L0.73 10.98Q1.11 10.36 1.53 9.60L1.53 9.60L2.40 8.00L2.40 8.00Q3.60 5.68 4.92 4.28L4.92 4.28L4.92 4.28Q5.38 3.78 5.83 3.51L5.83 3.51L5.83 3.51Q6.28 3.19 6.88 3.08L6.88 3.08L6.88 3.08Q7.04 3.04 7.18 3.04L7.18 3.04L7.18 3.04Q7.32 3.04 7.50 3.08L7.50 3.08L7.50 3.08Q7.67 3.12 7.80 3.21L7.80 3.21L7.80 3.21Q8.10 3.42 7.98 3.76L7.98 3.76L7.98 3.76Q7.92 3.96 7.77 4.38L7.77 4.38L7.40 5.35L7.40 5.35Q6.10 8.92 5.98 11.85L5.98 11.85L5.98 11.85Q6.34 11.22 6.71 10.49L6.71 10.49L7.49 8.96L8.30 7.41L8.30 7.41Q10.18 3.92 11.79 3.42L11.79 3.42L11.79 3.42Q12.13 3.31 12.35 3.31L12.35 3.31L12.35 3.31Q12.58 3.31 12.71 3.37L12.71 3.37L12.71 3.37Q12.84 3.42 12.94 3.51L12.94 3.51L12.94 3.51Q13.18 3.73 13.10 3.96L13.10 3.96L13.10 3.96Q13.03 4.19 12.91 4.55L12.91 4.55L11.92 7.44L11.56 8.57L11.56 8.57Q10.97 10.54 10.86 11.59L10.86 11.59L10.86 11.59Q10.82 12.04 10.96 12.29L10.96 12.29L10.96 12.29Q11.10 12.54 11.35 12.54L11.35 12.54L11.35 12.54Q11.59 12.54 11.73 12.50L11.73 12.50L11.73 12.50Q11.87 12.46 11.98 12.41L11.98 12.41L12.15 12.33L12.15 12.33Q12.23 12.29 12.29 12.29ZM18.77 11.85L18.77 11.85L18.77 11.85Q18.77 12.48 19.22 12.48L19.22 12.48L19.22 12.48Q19.52 12.48 19.73 12.39L19.73 12.39L19.73 12.39Q19.93 12.29 20.00 12.29L20.00 12.29L20.00 12.29Q20.14 12.29 20.14 12.44L20.14 12.44L20.14 12.44Q20.14 13.03 19.52 13.45L19.52 13.45L19.52 13.45Q18.87 13.90 18.20 13.67L18.20 13.67L18.20 13.67Q17.75 13.51 17.54 13.00L17.54 13.00L17.54 13.00Q17.44 12.73 17.44 12.51L17.44 12.51L17.44 12.51Q17.44 12.15 17.51 11.76L17.51 11.76L17.51 11.76Q16.87 13.06 15.93 13.55L15.93 13.55L15.93 13.55Q15.55 13.74 15.13 13.74L15.13 13.74L15.13 13.74Q14.70 13.74 14.39 13.57L14.39 13.57L14.39 13.57Q14.08 13.39 13.86 13.08L13.86 13.08L13.86 13.08Q13.42 12.44 13.46 11.47L13.46 11.47L13.46 11.47Q13.50 10.25 14.18 9.08L14.18 9.08L14.18 9.08Q14.80 7.99 15.75 7.30L15.75 7.30L15.75 7.30Q16.70 6.60 17.53 6.60L17.53 6.60L17.53 6.60Q18.35 6.60 18.86 7.36L18.86 7.36L18.86 7.36Q19.33 6.60 19.69 6.60L19.69 6.60L19.69 6.60Q20.08 6.60 20.28 6.74L20.28 6.74L20.28 6.74Q20.66 7.01 20.55 7.22L20.55 7.22L20.55 7.22Q18.83 10.73 18.79 11.59L18.79 11.59L18.79 11.59Q18.77 11.72 18.77 11.85ZM14.98 11.88L14.98 11.88L14.98 11.88Q14.98 12.70 15.50 12.70L15.50 12.70L15.50 12.70Q15.91 12.70 16.50 12.02L16.50 12.02L16.50 12.02Q17.36 11.01 18.02 9.31L18.02 9.31L18.02 9.31Q18.23 8.78 18.38 8.24L18.38 8.24L18.38 8.24Q18.35 7.78 17.99 7.56L17.99 7.56L17.99 7.56Q17.86 7.49 17.62 7.49L17.62 7.49L17.62 7.49Q17.38 7.49 17.05 7.66L17.05 7.66L17.05 7.66Q16.73 7.84 16.42 8.15L16.42 8.15L16.42 8.15Q16.12 8.46 15.86 8.88L15.86 8.88L15.86 8.88Q15.59 9.30 15.39 9.79L15.39 9.79L15.39 9.79Q14.98 10.84 14.98 11.88ZM21.14 13.51L21.14 13.51L21.14 13.51Q21 13.41 20.92 13.28L20.92 13.28L20.92 13.28Q20.84 13.15 20.83 13.06L20.83 13.06L20.83 13.06Q20.82 12.97 20.87 12.83L20.87 12.83L20.87 12.83Q20.91 12.70 20.99 12.51L20.99 12.51L20.99 12.51Q22.38 9.08 22.38 7.90L22.38 7.90L22.38 7.90Q22.36 7.57 22.16 7.44L22.16 7.44L22.02 7.34L22.02 7.34Q21.96 7.29 21.95 7.17L21.95 7.17L21.95 7.17Q21.95 7.05 22.04 6.95L22.04 6.95L22.04 6.95Q22.13 6.84 22.27 6.75L22.27 6.75L22.27 6.75Q22.57 6.60 22.88 6.60L22.88 6.60L22.88 6.60Q23.19 6.60 23.36 6.67L23.36 6.67L23.36 6.67Q23.54 6.73 23.66 6.85L23.66 6.85L23.66 6.85Q23.92 7.10 23.92 7.37L23.92 7.37L23.92 7.37Q23.93 7.64 23.86 7.92L23.86 7.92L23.86 7.92Q23.80 8.20 23.71 8.47L23.71 8.47L23.71 8.47Q23.62 8.74 23.53 8.99L23.53 8.99L23.53 8.99Q23.44 9.23 23.41 9.34L23.41 9.34L23.41 9.34Q23.36 9.58 23.37 9.65L23.37 9.65L23.37 9.65Q23.54 9.50 23.57 9.37L23.57 9.37L23.84 8.86L23.84 8.86Q24.73 7.26 25.57 6.74L25.57 6.74L25.57 6.74Q25.82 6.60 26.16 6.60L26.16 6.60L26.16 6.60Q26.51 6.60 26.72 6.84L26.72 6.84L26.72 6.84Q26.93 7.08 26.94 7.38L26.94 7.38L26.94 7.38Q26.95 7.67 26.90 7.86L26.90 7.86L26.90 7.86Q26.85 8.06 26.75 8.23L26.75 8.23L26.75 8.23Q26.52 8.61 26.20 8.61L26.20 8.61L26.20 8.61Q26.11 8.61 26.04 8.55L26.04 8.55L25.89 8.42L25.89 8.42Q25.66 8.22 25.45 8.22L25.45 8.22L25.45 8.22Q25.25 8.22 24.95 8.50L24.95 8.50L24.95 8.50Q24.65 8.77 24.33 9.20L24.33 9.20L24.33 9.20Q23.25 10.63 22.57 12.40L22.57 12.40L22.26 13.19L22.26 13.19Q22.15 13.49 22.06 13.61L22.06 13.61L22.06 13.61Q21.97 13.74 21.80 13.74L21.80 13.74L21.80 13.74Q21.62 13.74 21.45 13.68L21.45 13.68L21.45 13.68Q21.27 13.61 21.14 13.51ZM26.85 13.01L26.85 13.01L26.85 13.01Q26.75 12.78 26.75 12.48L26.75 12.48L26.75 12.48Q26.75 12.17 26.84 11.80L26.84 11.80L26.84 11.80Q26.94 11.42 27.09 11.03L27.09 11.03L27.09 11.03Q27.24 10.64 27.43 10.24L27.43 10.24L27.77 9.45L27.77 9.45Q28.45 7.88 28.27 7.60L28.27 7.60L28.27 7.60Q28.19 7.47 27.96 7.34L27.96 7.34L27.96 7.34Q27.88 7.29 27.88 7.17L27.88 7.17L27.88 7.17Q27.88 7.05 27.98 6.95L27.98 6.95L27.98 6.95Q28.08 6.84 28.25 6.75L28.25 6.75L28.25 6.75Q28.57 6.60 28.91 6.60L28.91 6.60L28.91 6.60Q29.24 6.60 29.42 6.67L29.42 6.67L29.42 6.67Q29.59 6.74 29.71 6.85L29.71 6.85L29.71 6.85Q29.93 7.08 29.93 7.40L29.93 7.40L29.93 7.40Q29.93 7.72 29.80 8.12L29.80 8.12L29.80 8.12Q29.68 8.52 29.50 8.97L29.50 8.97L29.50 8.97Q29.31 9.41 29.09 9.88L29.09 9.88L28.69 10.77L28.69 10.77Q28.26 11.76 28.26 12.09L28.26 12.09L28.26 12.09Q28.26 12.71 28.70 12.71L28.70 12.71L28.70 12.71Q29.85 12.71 30.84 11.36L30.84 11.36L30.84 11.36Q31.42 10.58 31.68 9.65L31.68 9.65L31.68 9.65Q31.79 9.21 31.79 8.86L31.79 8.86L31.79 8.86Q31.79 8.50 31.77 8.26L31.77 8.26L31.77 8.26Q31.75 8.02 31.69 7.83L31.69 7.83L31.69 7.83Q31.60 7.51 31.39 7.27L31.39 7.27L31.39 7.27Q31.25 7.09 31.52 6.85L31.52 6.85L31.52 6.85Q31.82 6.60 32.38 6.60L32.38 6.60L32.38 6.60Q32.72 6.60 32.98 6.92L32.98 6.92L32.98 6.92Q33.30 7.30 33.30 8.02L33.30 8.02L33.30 8.02Q33.30 8.73 33.09 9.42L33.09 9.42L33.09 9.42Q32.88 10.10 32.51 10.74L32.51 10.74L32.51 10.74Q32.14 11.37 31.64 11.92L31.64 11.92L31.64 11.92Q31.14 12.46 30.56 12.87L30.56 12.87L30.56 12.87Q29.31 13.74 28.07 13.74L28.07 13.74L28.07 13.74Q27.17 13.74 26.85 13.01ZM34.00 11.28L34.00 11.28L34.00 11.28Q34.03 10.68 34.20 10.14L34.20 10.14L34.20 10.14Q34.37 9.60 34.66 9.09L34.66 9.09L34.66 9.09Q34.95 8.58 35.33 8.12L35.33 8.12L35.33 8.12Q35.72 7.67 36.17 7.33L36.17 7.33L36.17 7.33Q37.15 6.60 38.14 6.60L38.14 6.60L38.14 6.60Q39.31 6.60 39.70 7.56L39.70 7.56L39.70 7.56Q39.84 7.89 39.83 8.34L39.83 8.34L39.83 8.34Q39.83 8.78 39.66 9.16L39.66 9.16L39.66 9.16Q39.50 9.54 39.21 9.85L39.21 9.85L39.21 9.85Q38.92 10.17 38.52 10.41L38.52 10.41L38.52 10.41Q38.12 10.66 37.65 10.83L37.65 10.83L37.65 10.83Q36.67 11.17 35.57 11.18L35.57 11.18L35.57 11.18Q35.54 11.28 35.53 11.47L35.53 11.47L35.53 11.47Q35.53 11.66 35.57 11.90L35.57 11.90L35.57 11.90Q35.62 12.13 35.74 12.32L35.74 12.32L35.74 12.32Q35.98 12.73 36.45 12.73L36.45 12.73L36.45 12.73Q37.24 12.73 37.99 12.26L37.99 12.26L37.99 12.26Q38.26 12.11 38.43 11.94L38.43 11.94L38.43 11.94Q38.60 11.77 38.72 11.77L38.72 11.77L38.72 11.77Q38.84 11.77 38.93 11.92L38.93 11.92L38.93 11.92Q39.03 12.07 39.03 12.25L39.03 12.25L39.03 12.25Q39.03 12.61 38.82 12.88L38.82 12.88L38.82 12.88Q37.96 13.74 36.26 13.74L36.26 13.74L36.26 13.74Q35.25 13.74 34.64 13.14L34.64 13.14L34.64 13.14Q33.96 12.46 34.00 11.28ZM37.99 7.51L37.99 7.51L37.99 7.51Q37.28 7.51 36.61 8.49L36.61 8.49L36.61 8.49Q36.05 9.34 35.71 10.50L35.71 10.50L35.71 10.50Q36.85 10.38 37.69 9.60L37.69 9.60L37.69 9.60Q38.47 8.86 38.47 8.18L38.47 8.18L38.47 8.18Q38.47 7.51 37.99 7.51ZM40.91 13.40L40.91 13.40L40.91 13.40Q40.74 13.22 40.64 12.94L40.64 12.94L40.64 12.94Q40.53 12.67 40.53 12.30L40.53 12.30L40.53 12.30Q40.53 11.94 40.70 11.32L40.70 11.32L40.70 11.32Q40.87 10.71 41.13 9.92L41.13 9.92L41.70 8.22L41.70 8.22Q42.92 4.66 43.11 2.72L43.11 2.72L43.11 2.72Q43.18 2.15 43.67 2.15L43.67 2.15L43.67 2.15Q43.99 2.15 44.19 2.30L44.19 2.30L44.19 2.30Q44.59 2.60 44.58 2.97L44.58 2.97L44.58 2.97Q44.56 3.34 44.45 3.87L44.45 3.87L44.45 3.87Q44.33 4.40 44.15 5.02L44.15 5.02L44.15 5.02Q43.96 5.65 43.72 6.34L43.72 6.34L42.78 9.12L42.78 9.12Q41.97 11.48 41.97 12.17L41.97 12.17L41.97 12.17Q41.97 12.54 42.27 12.54L42.27 12.54L42.27 12.54Q42.55 12.54 42.79 12.42L42.79 12.42L42.79 12.42Q43.03 12.30 43.09 12.30L43.09 12.30L43.09 12.30Q43.24 12.30 43.24 12.44L43.24 12.44L43.24 12.44Q43.24 13.05 42.62 13.46L42.62 13.46L42.62 13.46Q42.20 13.74 41.85 13.74L41.85 13.74L41.85 13.74Q41.51 13.74 41.30 13.66L41.30 13.66L41.30 13.66Q41.08 13.58 40.91 13.40ZM50.54 9.19L50.54 9.19L50.54 9.19Q50.34 9.19 50.12 9.17L50.12 9.17L50.12 9.17Q49.91 9.15 49.62 9.15L49.62 9.15L49.62 9.15Q48.97 9.13 48.22 9.20L48.22 9.20L48.22 9.20Q48.05 9.79 47.66 10.65L47.66 10.65L47.66 10.65Q47.26 11.50 46.88 12.10L46.88 12.10L46.88 12.10Q46.06 13.37 45.21 13.67L45.21 13.67L45.21 13.67Q45.09 13.72 44.96 13.72L44.96 13.72L44.96 13.72Q44.84 13.72 44.73 13.68L44.73 13.68L44.73 13.68Q44.63 13.63 44.56 13.56L44.56 13.56L44.56 13.56Q44.42 13.43 44.42 13.28L44.42 13.28L44.42 13.28Q44.42 13.12 44.52 13.04L44.52 13.04L44.52 13.04Q45.49 12.34 46.52 9.50L46.52 9.50L46.52 9.50Q46.44 9.52 46.37 9.54L46.37 9.54L46.37 9.54Q46.29 9.56 46.24 9.58L46.24 9.58L46.24 9.58Q46.18 9.60 46.11 9.60L46.11 9.60L46.11 9.60Q46.04 9.60 45.95 9.55L45.95 9.55L45.95 9.55Q45.87 9.51 45.80 9.45L45.80 9.45L45.80 9.45Q45.65 9.31 45.65 9.18L45.65 9.18L45.65 9.18Q45.65 9.05 45.77 8.94L45.77 8.94L45.77 8.94Q45.89 8.83 46.07 8.72L46.07 8.72L46.07 8.72Q46.40 8.53 46.89 8.37L46.89 8.37L47.26 7.22L47.26 7.22Q47.91 5.20 48.51 4.42L48.51 4.42L48.51 4.42Q47.95 4.38 47.68 4.38L47.68 4.38L47.68 4.38Q46.87 4.38 46.52 4.60L46.52 4.60L46.52 4.60Q46.17 4.83 46.03 5.09L46.03 5.09L46.03 5.09Q45.89 5.35 45.88 5.46L45.88 5.46L45.88 5.46Q45.86 5.65 45.76 5.70L45.76 5.70L45.76 5.70Q45.66 5.75 45.51 5.75L45.51 5.75L45.51 5.75Q45.36 5.75 45.21 5.64L45.21 5.64L45.21 5.64Q45.05 5.54 44.95 5.37L44.95 5.37L44.95 5.37Q44.73 5.04 44.78 4.62L44.78 4.62L44.78 4.62Q44.82 4.20 45.05 3.89L45.05 3.89L45.05 3.89Q45.28 3.59 45.60 3.40L45.60 3.40L45.60 3.40Q46.18 3.04 46.82 3.04L46.82 3.04L46.82 3.04Q47.47 3.04 48.05 3.11L48.05 3.11L48.05 3.11Q48.62 3.17 49.20 3.25L49.20 3.25L49.20 3.25Q50.72 3.46 51.14 3.46L51.14 3.46L51.14 3.46Q51.56 3.46 51.76 3.41L51.76 3.41L51.76 3.41Q51.96 3.36 52.10 3.27L52.10 3.27L52.10 3.27Q52.25 3.17 52.31 3.14L52.31 3.14L52.31 3.14Q52.36 3.11 52.49 3.11L52.49 3.11L52.49 3.11Q52.70 3.11 52.67 3.42L52.67 3.42L52.67 3.42Q52.64 3.73 52.52 3.95L52.52 3.95L52.52 3.95Q52.40 4.18 52.20 4.32L52.20 4.32L52.20 4.32Q51.80 4.61 51.17 4.61L51.17 4.61L51.17 4.61Q50.55 4.61 49.66 4.53L49.66 4.53L49.66 4.53Q49.44 4.99 49.23 5.74L49.23 5.74L48.60 7.99L48.60 7.99Q49.25 7.89 49.58 7.89L49.58 7.89L49.58 7.89Q49.92 7.89 50.14 7.96L50.14 7.96L50.14 7.96Q50.36 8.03 50.53 8.15L50.53 8.15L50.53 8.15Q50.93 8.42 50.92 8.80L50.92 8.80L50.92 8.80Q50.91 9.19 50.54 9.19ZM56.98 11.85L56.98 11.85L56.98 11.85Q56.98 12.48 57.43 12.48L57.43 12.48L57.43 12.48Q57.74 12.48 57.94 12.39L57.94 12.39L57.94 12.39Q58.14 12.29 58.21 12.29L58.21 12.29L58.21 12.29Q58.35 12.29 58.35 12.44L58.35 12.44L58.35 12.44Q58.35 13.03 57.74 13.45L57.74 13.45L57.74 13.45Q57.09 13.90 56.41 13.67L56.41 13.67L56.41 13.67Q55.97 13.51 55.75 13.00L55.75 13.00L55.75 13.00Q55.65 12.73 55.65 12.51L55.65 12.51L55.65 12.51Q55.65 12.15 55.72 11.76L55.72 11.76L55.72 11.76Q55.08 13.06 54.14 13.55L54.14 13.55L54.14 13.55Q53.76 13.74 53.34 13.74L53.34 13.74L53.34 13.74Q52.92 13.74 52.61 13.57L52.61 13.57L52.61 13.57Q52.29 13.39 52.08 13.08L52.08 13.08L52.08 13.08Q51.63 12.44 51.67 11.47L51.67 11.47L51.67 11.47Q51.71 10.25 52.39 9.08L52.39 9.08L52.39 9.08Q53.01 7.99 53.96 7.30L53.96 7.30L53.96 7.30Q54.91 6.60 55.74 6.60L55.74 6.60L55.74 6.60Q56.57 6.60 57.07 7.36L57.07 7.36L57.07 7.36Q57.54 6.60 57.91 6.60L57.91 6.60L57.91 6.60Q58.30 6.60 58.50 6.74L58.50 6.74L58.50 6.74Q58.87 7.01 58.76 7.22L58.76 7.22L58.76 7.22Q57.05 10.73 57.00 11.59L57.00 11.59L57.00 11.59Q56.98 11.72 56.98 11.85ZM53.19 11.88L53.19 11.88L53.19 11.88Q53.19 12.70 53.72 12.70L53.72 12.70L53.72 12.70Q54.12 12.70 54.71 12.02L54.71 12.02L54.71 12.02Q55.57 11.01 56.23 9.31L56.23 9.31L56.23 9.31Q56.44 8.78 56.59 8.24L56.59 8.24L56.59 8.24Q56.56 7.78 56.20 7.56L56.20 7.56L56.20 7.56Q56.08 7.49 55.83 7.49L55.83 7.49L55.83 7.49Q55.59 7.49 55.27 7.66L55.27 7.66L55.27 7.66Q54.94 7.84 54.64 8.15L54.64 8.15L54.64 8.15Q54.33 8.46 54.07 8.88L54.07 8.88L54.07 8.88Q53.81 9.30 53.61 9.79L53.61 9.79L53.61 9.79Q53.19 10.84 53.19 11.88ZM64.26 7.89L64.26 7.89L64.26 7.89Q64.05 7.89 63.66 8.30L63.66 8.30L63.66 8.30Q63.27 8.70 62.98 9.04L62.98 9.04L62.40 9.73L61.28 11.16L61.28 11.16Q60.88 11.92 60.66 12.41L60.66 12.41L60.29 13.21L60.29 13.21Q60.14 13.50 60.04 13.62L60.04 13.62L60.04 13.62Q59.93 13.74 59.75 13.74L59.75 13.74L59.75 13.74Q59.57 13.74 59.40 13.68L59.40 13.68L59.40 13.68Q59.23 13.61 59.11 13.51L59.11 13.51L59.11 13.51Q58.85 13.29 58.85 13.03L58.85 13.03L58.85 13.03Q58.85 12.93 59.00 12.63L59.00 12.63L59.26 12.07L59.26 12.07Q59.38 11.83 59.55 11.44L59.55 11.44L59.93 10.51L59.93 10.51Q60.74 8.49 60.74 7.90L60.74 7.90L60.74 7.90Q60.74 7.59 60.53 7.44L60.53 7.44L60.40 7.34L60.40 7.34Q60.33 7.29 60.33 7.17L60.33 7.17L60.33 7.17Q60.33 7.05 60.42 6.95L60.42 6.95L60.42 6.95Q60.51 6.84 60.66 6.75L60.66 6.75L60.66 6.75Q60.97 6.60 61.28 6.60L61.28 6.60L61.28 6.60Q61.59 6.60 61.76 6.67L61.76 6.67L61.76 6.67Q61.93 6.73 62.05 6.85L62.05 6.85L62.05 6.85Q62.30 7.09 62.30 7.35L62.30 7.35L62.30 7.35Q62.30 7.61 62.24 7.87L62.24 7.87L62.24 7.87Q62.17 8.13 62.07 8.40L62.07 8.40L62.07 8.40Q61.97 8.67 61.87 8.93L61.87 8.93L61.87 8.93Q61.76 9.19 61.67 9.39L61.67 9.39L61.53 9.68L61.53 9.68Q61.48 9.79 61.50 9.75L61.50 9.75L61.50 9.75Q62.26 8.70 62.50 8.39L62.50 8.39L62.98 7.82L62.98 7.82Q63.51 7.21 63.81 7.01L63.81 7.01L63.81 7.01Q64.42 6.60 64.76 6.60L64.76 6.60L64.76 6.60Q65.11 6.60 65.35 6.69L65.35 6.69L65.35 6.69Q65.59 6.77 65.77 6.94L65.77 6.94L65.77 6.94Q66.14 7.29 66.14 7.83L66.14 7.83L66.14 7.83Q66.14 8.37 65.90 8.96L65.90 8.96L65.90 8.96Q65.65 9.54 65.47 9.91L65.47 9.91L65.47 9.91Q65.29 10.27 65.13 10.65L65.13 10.65L65.13 10.65Q64.61 11.79 64.61 12.31L64.61 12.31L64.61 12.31Q64.61 12.54 64.98 12.54L64.98 12.54L64.98 12.54Q65.27 12.54 65.51 12.42L65.51 12.42L65.51 12.42Q65.74 12.30 65.81 12.30L65.81 12.30L65.81 12.30Q65.95 12.30 65.95 12.44L65.95 12.44L65.95 12.44Q65.95 13.05 65.33 13.46L65.33 13.46L65.33 13.46Q64.91 13.74 64.57 13.74L64.57 13.74L64.57 13.74Q64.22 13.74 63.99 13.67L63.99 13.67L63.99 13.67Q63.76 13.59 63.58 13.43L63.58 13.43L63.58 13.43Q63.18 13.06 63.18 12.41L63.18 12.41L63.18 12.41Q63.18 11.62 63.68 10.43L63.68 10.43L63.68 10.43Q64.04 9.62 64.19 9.32L64.19 9.32L64.42 8.83L64.42 8.83Q64.63 8.39 64.63 8.14L64.63 8.14L64.63 8.14Q64.63 7.89 64.26 7.89ZM71.66 10.80L71.66 10.80L71.67 10.60L71.67 10.60Q71.74 8.56 72.70 6.74L72.70 6.74L72.70 6.74Q73.58 5.08 74.92 4.05L74.92 4.05L74.92 4.05Q76.25 3.04 77.51 3.04L77.51 3.04L77.51 3.04Q78.46 3.04 79.02 3.71L79.02 3.71L79.02 3.71Q79.49 4.28 79.49 5.11L79.49 5.11L79.49 5.11Q79.49 6.11 78.76 7.08L78.76 7.08L78.76 7.08Q78.33 7.64 77.85 7.89L77.85 7.89L77.85 7.89Q77.63 8.01 77.43 8.01L77.43 8.01L77.43 8.01Q77.24 8.01 77.08 7.93L77.08 7.93L77.08 7.93Q76.91 7.85 76.79 7.72L76.79 7.72L76.79 7.72Q76.54 7.46 76.54 7.25L76.54 7.25L76.54 7.25Q76.54 7.03 76.64 6.95L76.64 6.95L76.64 6.95Q77.77 6.15 78.17 5.29L78.17 5.29L78.17 5.29Q78.33 4.96 78.33 4.65L78.33 4.65L78.33 4.65Q78.33 3.99 77.70 3.99L77.70 3.99L77.70 3.99Q76.71 3.99 75.67 5.06L75.67 5.06L75.67 5.06Q74.69 6.05 74.03 7.55L74.03 7.55L74.03 7.55Q73.34 9.08 73.29 10.37L73.29 10.37L73.29 10.63L73.29 10.63Q73.29 12.17 73.94 12.65L73.94 12.65L73.94 12.65Q74.17 12.82 74.49 12.82L74.49 12.82L74.49 12.82Q74.82 12.82 75.11 12.74L75.11 12.74L75.11 12.74Q75.39 12.65 75.68 12.51L75.68 12.51L75.68 12.51Q76.15 12.27 76.87 11.68L76.87 11.68L76.87 11.68Q77.09 11.51 77.23 11.73L77.23 11.73L77.23 11.73Q77.36 11.91 77.36 12.14L77.36 12.14L77.36 12.14Q77.36 12.53 77.25 12.67L77.25 12.67L77.25 12.67Q77.14 12.81 76.89 13.00L76.89 13.00L76.89 13.00Q76.63 13.19 76.26 13.36L76.26 13.36L76.26 13.36Q75.40 13.74 74.57 13.74L74.57 13.74L74.57 13.74Q73.75 13.74 73.24 13.54L73.24 13.54L73.24 13.54Q72.73 13.34 72.39 12.96L72.39 12.96L72.39 12.96Q71.66 12.17 71.66 10.80ZM79.58 13.21L79.58 13.21L79.58 13.21Q79.30 12.93 79.13 12.51L79.13 12.51L79.13 12.51Q78.97 12.09 78.96 11.52L78.96 11.52L78.96 11.52Q78.96 10.94 79.10 10.36L79.10 10.36L79.10 10.36Q79.25 9.77 79.52 9.22L79.52 9.22L79.52 9.22Q79.79 8.67 80.17 8.20L80.17 8.20L80.17 8.20Q80.55 7.72 81.01 7.36L81.01 7.36L81.01 7.36Q82.00 6.60 83.08 6.60L83.08 6.60L83.08 6.60Q84.49 6.60 84.98 7.83L84.98 7.83L84.98 7.83Q85.34 8.73 85.03 10.00L85.03 10.00L85.03 10.00Q84.74 11.17 83.97 12.15L83.97 12.15L83.97 12.15Q83.21 13.13 82.18 13.54L82.18 13.54L82.18 13.54Q81.66 13.74 81.16 13.74L81.16 13.74L81.16 13.74Q80.66 13.74 80.26 13.61L80.26 13.61L80.26 13.61Q79.87 13.48 79.58 13.21ZM80.89 9.89L80.89 9.89L80.89 9.89Q80.68 10.40 80.56 10.93L80.56 10.93L80.56 10.93Q80.45 11.46 80.45 11.94L80.45 11.94L80.45 11.94Q80.46 12.41 80.60 12.68L80.60 12.68L80.60 12.68Q80.74 12.95 81.05 12.95L81.05 12.95L81.05 12.95Q81.37 12.95 81.67 12.74L81.67 12.74L81.67 12.74Q81.98 12.52 82.26 12.17L82.26 12.17L82.26 12.17Q82.55 11.81 82.80 11.35L82.80 11.35L82.80 11.35Q83.06 10.88 83.25 10.38L83.25 10.38L83.25 10.38Q83.67 9.28 83.65 8.42L83.65 8.42L83.65 8.42Q83.65 7.67 83.34 7.46L83.34 7.46L83.34 7.46Q83.22 7.38 83.00 7.38L83.00 7.38L83.00 7.38Q82.78 7.38 82.49 7.58L82.49 7.58L82.49 7.58Q82.20 7.79 81.92 8.13L81.92 8.13L81.92 8.13Q81.63 8.47 81.36 8.93L81.36 8.93L81.36 8.93Q81.09 9.39 80.89 9.89ZM91.31 7.89L91.31 7.89L91.31 7.89Q90.91 7.89 89.86 9.04L89.86 9.04L89.86 9.04Q89.07 9.93 88.72 10.38L88.72 10.38L88.10 11.16L88.10 11.16Q87.71 11.92 87.48 12.41L87.48 12.41L87.11 13.21L87.11 13.21Q86.97 13.50 86.86 13.62L86.86 13.62L86.86 13.62Q86.75 13.74 86.57 13.74L86.57 13.74L86.57 13.74Q86.39 13.74 86.23 13.68L86.23 13.68L86.23 13.68Q86.06 13.61 85.93 13.51L85.93 13.51L85.93 13.51Q85.67 13.29 85.67 13.03L85.67 13.03L85.67 13.03Q85.67 12.93 85.83 12.63L85.83 12.63L86.08 12.07L86.08 12.07Q86.21 11.83 86.37 11.44L86.37 11.44L86.75 10.51L86.75 10.51Q87.56 8.49 87.56 7.90L87.56 7.90L87.56 7.90Q87.56 7.59 87.36 7.44L87.36 7.44L87.22 7.34L87.22 7.34Q87.15 7.29 87.15 7.17L87.15 7.17L87.15 7.17Q87.15 7.05 87.24 6.95L87.24 6.95L87.24 6.95Q87.34 6.84 87.49 6.75L87.49 6.75L87.49 6.75Q87.79 6.60 88.10 6.60L88.10 6.60L88.10 6.60Q88.42 6.60 88.59 6.67L88.59 6.67L88.59 6.67Q88.77 6.73 88.90 6.85L88.90 6.85L88.90 6.85Q89.16 7.09 89.16 7.35L89.16 7.35L89.16 7.35Q89.16 7.61 89.09 7.87L89.09 7.87L89.09 7.87Q89.02 8.13 88.92 8.40L88.92 8.40L88.92 8.40Q88.82 8.67 88.70 8.93L88.70 8.93L88.70 8.93Q88.43 9.52 88.36 9.65L88.36 9.65L88.36 9.65Q88.30 9.78 88.33 9.75L88.33 9.75L88.33 9.75Q89.58 8.13 89.83 7.83L89.83 7.83L89.83 7.83Q90.36 7.23 90.65 7L90.65 7L90.65 7Q91.19 6.60 91.67 6.60L91.67 6.60L91.67 6.60Q92.16 6.60 92.44 6.90L92.44 6.90L92.44 6.90Q92.73 7.20 92.73 7.69L92.73 7.69L92.73 7.69Q92.73 8.12 92.51 8.70L92.51 8.70L92.51 8.70Q92.29 9.28 92.22 9.52L92.22 9.52L93.22 8.19L93.78 7.52L93.78 7.52Q94.29 6.95 94.67 6.77L94.67 6.77L94.67 6.77Q95.05 6.60 95.30 6.60L95.30 6.60L95.30 6.60Q95.54 6.60 95.77 6.69L95.77 6.69L95.77 6.69Q96.01 6.77 96.17 6.94L96.17 6.94L96.17 6.94Q96.52 7.27 96.52 7.83L96.52 7.83L96.52 7.83Q96.52 8.36 96.28 8.92L96.28 8.92L96.28 8.92Q96.03 9.48 95.85 9.84L95.85 9.84L95.85 9.84Q95.66 10.20 95.49 10.56L95.49 10.56L95.49 10.56Q94.99 11.65 94.99 12.17L94.99 12.17L94.99 12.17Q94.99 12.54 95.29 12.54L95.29 12.54L95.29 12.54Q95.58 12.54 95.82 12.42L95.82 12.42L95.82 12.42Q96.05 12.30 96.12 12.30L96.12 12.30L96.12 12.30Q96.26 12.30 96.26 12.44L96.26 12.44L96.26 12.44Q96.26 13.05 95.64 13.46L95.64 13.46L95.64 13.46Q95.22 13.74 94.88 13.74L94.88 13.74L94.88 13.74Q94.53 13.74 94.32 13.66L94.32 13.66L94.32 13.66Q94.11 13.58 93.94 13.40L93.94 13.40L93.94 13.40Q93.56 13.00 93.56 12.41L93.56 12.41L93.56 12.41Q93.56 11.81 93.71 11.31L93.71 11.31L93.71 11.31Q93.86 10.81 94.06 10.35L94.06 10.35L94.06 10.35Q94.27 9.88 94.48 9.48L94.48 9.48L94.48 9.48Q94.68 9.09 94.79 8.86L94.79 8.86L94.79 8.86Q95.01 8.38 95.01 8.16L95.01 8.16L95.01 8.16Q95.01 7.89 94.73 7.89L94.73 7.89L94.73 7.89Q94.36 7.89 93.41 9.11L93.41 9.11L93.41 9.11Q92.68 10.06 92.40 10.48L92.40 10.48L91.93 11.16L91.93 11.16Q91.53 11.92 91.32 12.41L91.32 12.41L90.97 13.21L90.97 13.21Q90.84 13.50 90.75 13.62L90.75 13.62L90.75 13.62Q90.65 13.74 90.48 13.74L90.48 13.74L90.48 13.74Q90.31 13.74 90.15 13.69L90.15 13.69L90.15 13.69Q89.99 13.63 89.87 13.54L89.87 13.54L89.87 13.54Q89.61 13.34 89.61 13.12L89.61 13.12L89.61 13.12Q89.61 12.90 89.75 12.51L89.75 12.51L89.75 12.51Q89.90 12.13 90.12 11.65L90.12 11.65L91.08 9.63L91.08 9.63Q91.59 8.50 91.59 8.19L91.59 8.19L91.59 8.19Q91.59 7.89 91.31 7.89ZM91.98 9.82L91.98 9.82L91.98 9.82Q91.99 9.82 91.99 9.81L91.99 9.81L92.00 9.80L92.00 9.80Q91.98 9.81 91.98 9.82ZM101.25 4.99L101.25 4.99L101.25 4.99Q101.10 5.15 100.91 5.25L100.91 5.25L100.91 5.25Q100.72 5.35 100.51 5.38L100.51 5.38L100.51 5.38Q100.30 5.40 100.11 5.31L100.11 5.31L100.11 5.31Q99.92 5.22 99.78 5.06L99.78 5.06L99.78 5.06Q99.49 4.72 99.49 4.37L99.49 4.37L99.49 4.37Q99.49 4.02 99.60 3.85L99.60 3.85L99.60 3.85Q99.72 3.67 99.89 3.56L99.89 3.56L99.89 3.56Q100.21 3.35 100.51 3.35L100.51 3.35L100.51 3.35Q100.80 3.35 100.96 3.39L100.96 3.39L100.96 3.39Q101.12 3.43 101.25 3.53L101.25 3.53L101.25 3.53Q101.59 3.75 101.59 4.08L101.59 4.08L101.59 4.08Q101.59 4.40 101.50 4.62L101.50 4.62L101.50 4.62Q101.40 4.83 101.25 4.99ZM99.85 12.39L99.85 12.39L99.85 12.39Q100.03 12.39 100.03 12.63L100.03 12.63L100.03 12.63Q100.03 12.93 99.75 13.26L99.75 13.26L99.75 13.26Q99.34 13.74 98.65 13.74L98.65 13.74L98.65 13.74Q97.86 13.74 97.56 13.10L97.56 13.10L97.56 13.10Q97.45 12.87 97.45 12.55L97.45 12.55L97.45 12.55Q97.45 12.23 97.57 11.84L97.57 11.84L97.57 11.84Q97.68 11.44 97.85 11.01L97.85 11.01L97.85 11.01Q98.01 10.58 98.21 10.13L98.21 10.13L98.57 9.27L98.57 9.27Q98.97 8.31 98.97 8.00L98.97 8.00L98.97 8.00Q98.97 7.69 98.91 7.59L98.91 7.59L98.91 7.59Q98.84 7.49 98.77 7.44L98.77 7.44L98.63 7.34L98.63 7.34Q98.56 7.29 98.56 7.17L98.56 7.17L98.56 7.17Q98.56 7.05 98.65 6.95L98.65 6.95L98.65 6.95Q98.75 6.84 98.90 6.75L98.90 6.75L98.90 6.75Q99.20 6.60 99.61 6.60L99.61 6.60L99.61 6.60Q100.62 6.60 100.62 7.12L100.62 7.12L100.62 7.12Q100.62 7.74 100.30 8.53L100.30 8.53L100.30 8.53Q99.98 9.32 99.75 9.80L99.75 9.80L99.34 10.75L99.34 10.75Q98.89 11.79 98.89 12.24L98.89 12.24L98.89 12.24Q98.89 12.54 99.19 12.54L99.19 12.54L99.19 12.54Q99.48 12.54 99.63 12.47L99.63 12.47L99.63 12.47Q99.78 12.39 99.85 12.39ZM101.51 11.31L101.51 11.31L101.51 11.31Q101.53 10.72 101.70 10.13L101.70 10.13L101.70 10.13Q101.88 9.54 102.17 9.01L102.17 9.01L102.17 9.01Q102.46 8.48 102.86 8.04L102.86 8.04L102.86 8.04Q103.26 7.59 103.73 7.27L103.73 7.27L103.73 7.27Q104.71 6.60 105.80 6.60L105.80 6.60L105.80 6.60Q106.92 6.60 107.32 7.49L107.32 7.49L107.32 7.49Q107.47 7.81 107.46 8.22L107.46 8.22L107.46 8.22Q107.45 8.63 107.32 8.97L107.32 8.97L107.32 8.97Q107.20 9.30 107.02 9.57L107.02 9.57L107.02 9.57Q106.60 10.17 106.18 10.17L106.18 10.17L106.18 10.17Q105.70 10.17 105.48 9.91L105.48 9.91L105.48 9.91Q105.28 9.69 105.36 9.39L105.36 9.39L105.36 9.39Q105.38 9.30 105.48 9.23L105.48 9.23L105.48 9.23Q105.58 9.15 105.74 9.00L105.74 9.00L105.74 9.00Q106.18 8.53 106.20 7.91L106.20 7.91L106.20 7.91Q106.22 7.49 105.68 7.49L105.68 7.49L105.68 7.49Q105.11 7.49 104.48 8.13L104.48 8.13L104.48 8.13Q103.56 9.06 103.19 10.53L103.19 10.53L103.19 10.53Q102.86 11.80 103.31 12.39L103.31 12.39L103.31 12.39Q103.58 12.73 104.04 12.73L104.04 12.73L104.04 12.73Q104.81 12.73 105.53 12.18L105.53 12.18L105.53 12.18Q105.75 12.01 105.88 11.83L105.88 11.83L105.88 11.83Q106.02 11.66 106.13 11.66L106.13 11.66L106.13 11.66Q106.25 11.66 106.33 11.77L106.33 11.77L106.33 11.77Q106.41 11.88 106.41 12.06L106.41 12.06L106.41 12.06Q106.41 12.46 106.05 12.85L106.05 12.85L106.05 12.85Q105.12 13.74 103.81 13.74L103.81 13.74L103.81 13.74Q102.70 13.74 102.09 13.10L102.09 13.10L102.09 13.10Q101.49 12.48 101.51 11.31ZM107.75 12.47L107.75 12.47L107.75 12.47Q107.75 12.26 107.85 12.08L107.85 12.08L107.85 12.08Q107.94 11.89 108.08 11.77L108.08 11.77L108.08 11.77Q108.36 11.50 108.68 11.50L108.68 11.50L108.68 11.50Q108.95 11.50 108.95 11.79L108.95 11.79L108.95 11.79Q108.95 12.50 109.42 12.78L109.42 12.78L109.42 12.78Q109.59 12.88 109.78 12.88L109.78 12.88L109.78 12.88Q109.96 12.88 110.09 12.84L110.09 12.84L110.09 12.84Q110.22 12.80 110.33 12.71L110.33 12.71L110.33 12.71Q110.58 12.51 110.58 12.24L110.58 12.24L110.58 12.24Q110.58 11.96 110.46 11.73L110.46 11.73L110.46 11.73Q110.33 11.50 110.15 11.25L110.15 11.25L109.76 10.71L109.76 10.71Q108.94 9.61 108.94 8.69L108.94 8.69L108.94 8.69Q108.94 7.92 109.59 7.30L109.59 7.30L109.59 7.30Q110.33 6.60 111.48 6.60L111.48 6.60L111.48 6.60Q112.49 6.60 113.06 7.10L113.06 7.10L113.06 7.10Q113.52 7.50 113.52 8.02L113.52 8.02L113.52 8.02Q113.52 8.56 113.11 8.88L113.11 8.88L113.11 8.88Q112.75 9.17 112.38 9.09L112.38 9.09L112.38 9.09Q112.21 9.06 112.12 8.92L112.12 8.92L112.12 8.92Q112.03 8.79 112.09 8.62L112.09 8.62L112.09 8.62Q112.14 8.45 112.14 8.26L112.14 8.26L112.14 8.26Q112.14 8.08 112.08 7.92L112.08 7.92L112.08 7.92Q112.01 7.77 111.89 7.66L111.89 7.66L111.89 7.66Q111.65 7.43 111.39 7.43L111.39 7.43L111.39 7.43Q111.13 7.43 110.95 7.49L110.95 7.49L110.95 7.49Q110.78 7.55 110.65 7.66L110.65 7.66L110.65 7.66Q110.39 7.90 110.39 8.26L110.39 8.26L110.39 8.26Q110.39 8.62 110.51 8.88L110.51 8.88L110.51 8.88Q110.63 9.14 110.81 9.40L110.81 9.40L110.81 9.40Q111.00 9.66 111.21 9.93L111.21 9.93L111.21 9.93Q111.42 10.19 111.60 10.49L111.60 10.49L111.60 10.49Q112.03 11.18 112.03 11.70L112.03 11.70L112.03 11.70Q112.03 12.22 111.81 12.57L111.81 12.57L111.81 12.57Q111.59 12.93 111.24 13.18L111.24 13.18L111.24 13.18Q110.50 13.73 109.57 13.73L109.57 13.73L109.57 13.73Q108.69 13.73 108.18 13.31L108.18 13.31L108.18 13.31Q107.75 12.95 107.75 12.47Z"></path></g><!----><g data-v-423bf9ae="" id="1cc648ce-3b94-49dc-8563-5e8d7a5a8081" transform="matrix(2.8125,0,0,2.8125,253,0)" stroke="none" fill="white"><path d="M29.625 1l-3.099 3.172H4.054v23.657h22.472L29.625 31H1V1h28.625M32 0H0v32h32l-5.054-5.172H5.054V5.172h21.893L32 0z"></path><path d="M21.038 10.962v10.076H10.962V10.962h10.076m1-1H9.962v12.076h12.076V9.962z"></path></g><!----></svg>